<svg width="72" height="15" viewBox="0 0 72 15" fill="none" xmlns="http://www.w3.org/2000/svg">
<path d="M7.19768 0C7.90037 0 8.45385 0.530736 8.80717 1.24687L9.9872 3.62639C10.023 3.70003 10.1078 3.80373 10.2353 3.8986C10.3627 3.99336 10.4874 4.04564 10.5695 4.05942L12.7055 4.41725C13.4771 4.5469 14.1238 4.9251 14.3337 5.58367C14.5435 6.24169 14.2361 6.92549 13.6813 7.48132L12.0213 9.15503C11.9556 9.22133 11.8819 9.34623 11.8357 9.50896C11.7898 9.67062 11.7857 9.81788 11.8066 9.91297L11.8068 9.91431L12.2816 11.9841C12.4785 12.8455 12.4132 13.6997 11.8057 14.1463C11.196 14.5944 10.363 14.3958 9.60609 13.945L7.60384 12.7499C7.51973 12.6997 7.37534 12.659 7.20103 12.659C7.02798 12.659 6.88059 12.6991 6.79099 12.7512L6.78972 12.752L4.7914 13.9447C4.03545 14.3971 3.20337 14.5922 2.59368 14.1436C1.98655 13.697 1.918 12.8443 2.11554 11.9836L2.5902 9.91431L2.59048 9.91297C2.6113 9.81788 2.60723 9.67062 2.56133 9.50896C2.51513 9.34623 2.44145 9.22133 2.37569 9.15503L0.715077 7.48065C0.163802 6.92482 -0.142533 6.24162 0.0655613 5.58457C0.274258 4.92561 0.919716 4.54695 1.69178 4.4172L3.82602 4.05969C3.90427 4.04611 4.02785 3.99431 4.15494 3.89929C4.28226 3.80411 4.3673 3.70018 4.40315 3.62639L4.40496 3.62271L5.58345 1.24624L5.58392 1.2453C5.94064 0.529765 6.4958 0 7.19768 0Z" fill="#F59E0B"/>
<path d="M21.5978 0C22.3005 0 22.854 0.530736 23.2073 1.24687L24.3873 3.62639C24.4231 3.70003 24.5079 3.80373 24.6354 3.8986C24.7628 3.99336 24.8875 4.04564 24.9696 4.05942L27.1056 4.41725C27.8772 4.5469 28.5239 4.9251 28.7338 5.58367C28.9436 6.24169 28.6362 6.92549 28.0814 7.48132L26.4214 9.15503C26.3557 9.22133 26.282 9.34623 26.2358 9.50896C26.1899 9.67062 26.1858 9.81788 26.2067 9.91297L26.2069 9.91431L26.6817 11.9841C26.8786 12.8455 26.8133 13.6997 26.2058 14.1463C25.5961 14.5944 24.7631 14.3958 24.0062 13.945L22.0039 12.7499C21.9198 12.6997 21.7754 12.659 21.6011 12.659C21.4281 12.659 21.2807 12.6991 21.1911 12.7512L21.1898 12.752L19.1915 13.9447C18.4355 14.3971 17.6035 14.5922 16.9938 14.1436C16.3866 13.697 16.3181 12.8443 16.5156 11.9836L16.9903 9.91431L16.9906 9.91297C17.0114 9.81788 17.0073 9.67062 16.9614 9.50896C16.9152 9.34623 16.8416 9.22133 16.7758 9.15503L15.1152 7.48065C14.5639 6.92482 14.2576 6.24162 14.4657 5.58457C14.6744 4.92561 15.3198 4.54695 16.0919 4.4172L18.2261 4.05969C18.3044 4.04611 18.4279 3.99431 18.555 3.89929C18.6824 3.80411 18.7674 3.70018 18.8032 3.62639L18.8051 3.62271L19.9835 1.24624L19.984 1.2453C20.3407 0.529765 20.8959 0 21.5978 0Z" fill="#F59E0B"/>
<path d="M35.9979 0C36.7006 0 37.254 0.530736 37.6074 1.24687L38.7874 3.62639C38.8232 3.70003 38.908 3.80373 39.0355 3.8986C39.1629 3.99336 39.2876 4.04564 39.3697 4.05942L41.5057 4.41725C42.2773 4.5469 42.924 4.9251 43.1339 5.58367C43.3437 6.24169 43.0363 6.92549 42.4815 7.48132L40.8215 9.15503C40.7558 9.22133 40.6821 9.34623 40.6359 9.50896C40.59 9.67062 40.5859 9.81788 40.6068 9.91297L40.607 9.91431L41.0818 11.9841C41.2787 12.8455 41.2134 13.6997 40.6059 14.1463C39.9962 14.5944 39.1632 14.3958 38.4063 13.945L36.404 12.7499C36.3199 12.6997 36.1755 12.659 36.0012 12.659C35.8282 12.659 35.6808 12.6991 35.5912 12.7512L35.5899 12.752L33.5916 13.9447C32.8356 14.3971 32.0036 14.5922 31.3939 14.1436C30.7867 13.697 30.7182 12.8443 30.9157 11.9836L31.3904 9.91431L31.3907 9.91297C31.4115 9.81788 31.4074 9.67062 31.3615 9.50896C31.3153 9.34623 31.2417 9.22133 31.1759 9.15503L29.5153 7.48065C28.964 6.92482 28.6577 6.24162 28.8658 5.58457C29.0745 4.92561 29.7199 4.54695 30.492 4.4172L32.6262 4.05969C32.7045 4.04611 32.828 3.99431 32.9551 3.89929C33.0825 3.80411 33.1675 3.70018 33.2033 3.62639L33.2052 3.62271L34.3836 1.24624L34.3841 1.2453C34.7408 0.529765 35.296 0 35.9979 0Z" fill="#F59E0B"/>
<path d="M50.3975 0C51.1002 0 51.6537 0.530736 52.007 1.24687L53.187 3.62639C53.2228 3.70003 53.3076 3.80373 53.4351 3.8986C53.5625 3.99336 53.6873 4.04564 53.7693 4.05942L55.9053 4.41725C56.6769 4.5469 57.3236 4.9251 57.5335 5.58367C57.7433 6.24169 57.4359 6.92549 56.8811 7.48132L55.2211 9.15503C55.1554 9.22133 55.0817 9.34623 55.0355 9.50896C54.9896 9.67062 54.9856 9.81788 55.0064 9.91297L55.0066 9.91431L55.4814 11.9841C55.6783 12.8455 55.613 13.6997 55.0055 14.1463C54.3958 14.5944 53.5628 14.3958 52.8059 13.945L50.8036 12.7499C50.7195 12.6997 50.5751 12.659 50.4008 12.659C50.2278 12.659 50.0804 12.6991 49.9908 12.7512L49.9895 12.752L47.9912 13.9447C47.2353 14.3971 46.4032 14.5922 45.7935 14.1436C45.1863 13.697 45.1178 12.8443 45.3153 11.9836L45.79 9.91431L45.7903 9.91297C45.8111 9.81788 45.807 9.67062 45.7611 9.50896C45.7149 9.34623 45.6413 9.22133 45.5755 9.15503L43.9149 7.48065C43.3636 6.92482 43.0573 6.24162 43.2654 5.58457C43.4741 4.92561 44.1195 4.54695 44.8916 4.4172L47.0258 4.05969C47.1041 4.04611 47.2277 3.99431 47.3547 3.89929C47.4821 3.80411 47.5671 3.70018 47.603 3.62639L47.6048 3.62271L48.7833 1.24624L48.7837 1.2453C49.1404 0.529765 49.6956 0 50.3975 0Z" fill="#F59E0B"/>
<path d="M64.7976 0C65.5003 0 66.0538 0.530736 66.4071 1.24687L67.5871 3.62639C67.6229 3.70003 67.7077 3.80373 67.8352 3.8986C67.9626 3.99336 68.0874 4.04564 68.1694 4.05942L70.3054 4.41725C71.077 4.5469 71.7237 4.9251 71.9336 5.58367C72.1434 6.24169 71.836 6.92549 71.2812 7.48132L69.6212 9.15503C69.5555 9.22133 69.4818 9.34623 69.4356 9.50896C69.3897 9.67062 69.3856 9.81788 69.4065 9.91297L69.4067 9.91431L69.8815 11.9841C70.0784 12.8455 70.0131 13.6997 69.4056 14.1463C68.7959 14.5944 67.9629 14.3958 67.206 13.945L65.2037 12.7499C65.1196 12.6997 64.9752 12.659 64.8009 12.659C64.6279 12.659 64.4805 12.6991 64.3909 12.7512L64.3896 12.752L62.3913 13.9447C61.6354 14.3971 60.8033 14.5922 60.1936 14.1436C59.5864 13.697 59.5179 12.8443 59.7154 11.9836L60.1901 9.91431L60.1904 9.91297C60.2112 9.81788 60.2071 9.67062 60.1612 9.50896C60.115 9.34623 60.0414 9.22133 59.9756 9.15503L58.315 7.48065C57.7637 6.92482 57.4574 6.24162 57.6655 5.58457C57.8742 4.92561 58.5196 4.54695 59.2917 4.4172L61.4259 4.05969C61.5042 4.04611 61.6278 3.99431 61.7548 3.89929C61.8822 3.80411 61.9672 3.70018 62.003 3.62639L62.0049 3.62271L63.1833 1.24624L63.1838 1.2453C63.5405 0.529765 64.0957 0 64.7976 0Z" fill="#F59E0B"/>
</svg>
