<svg width="20" height="20" viewBox="0 0 20 20" fill="none" xmlns="http://www.w3.org/2000/svg">
<path d="M1.6665 11.6668C1.6665 9.32608 1.6665 8.15567 2.22827 7.31493C2.47147 6.95096 2.78397 6.63846 3.14794 6.39526C3.98868 5.8335 5.15907 5.8335 7.49984 5.8335H12.4998C14.8406 5.8335 16.011 5.8335 16.8518 6.39526C17.2157 6.63846 17.5282 6.95096 17.7714 7.31493C18.3332 8.15567 18.3332 9.32608 18.3332 11.6668C18.3332 14.0076 18.3332 15.178 17.7714 16.0187C17.5282 16.3827 17.2157 16.6952 16.8518 16.9384C16.011 17.5002 14.8406 17.5002 12.4998 17.5002H7.49984C5.15907 17.5002 3.98868 17.5002 3.14794 16.9384C2.78397 16.6952 2.47147 16.3827 2.22827 16.0187C1.6665 15.178 1.6665 14.0076 1.6665 11.6668Z" stroke="#141B34" stroke-width="1.5" stroke-linecap="round" stroke-linejoin="round"/>
<path d="M13.3332 5.83333C13.3332 4.26198 13.3332 3.47631 12.845 2.98816C12.3568 2.5 11.5712 2.5 9.99984 2.5C8.4285 2.5 7.64281 2.5 7.15466 2.98816C6.6665 3.47631 6.6665 4.26198 6.6665 5.83333" stroke="#141B34" stroke-width="1.5" stroke-linecap="round" stroke-linejoin="round"/>
<path d="M5 9.1665L5.54331 9.33484C8.40425 10.2215 11.5957 10.2215 14.4567 9.33484L15 9.1665M10 9.99984V11.6665" stroke="#141B34" stroke-width="1.5" stroke-linecap="round" stroke-linejoin="round"/>
</svg>
