<svg width="20" height="20" viewBox="0 0 20 20" fill="none" xmlns="http://www.w3.org/2000/svg">
<path d="M13.3332 1.6665V4.99984M6.6665 1.6665V4.99984" stroke="#141B34" stroke-width="1.25" stroke-linecap="round" stroke-linejoin="round"/>
<path d="M10.8333 3.3335H9.16667C6.02397 3.3335 4.45262 3.3335 3.47631 4.3098C2.5 5.28612 2.5 6.85746 2.5 10.0002V11.6668C2.5 14.8095 2.5 16.3809 3.47631 17.3572C4.45262 18.3335 6.02397 18.3335 9.16667 18.3335H10.8333C13.976 18.3335 15.5474 18.3335 16.5237 17.3572C17.5 16.3809 17.5 14.8095 17.5 11.6668V10.0002C17.5 6.85746 17.5 5.28612 16.5237 4.3098C15.5474 3.3335 13.976 3.3335 10.8333 3.3335Z" stroke="#141B34" stroke-width="1.25" stroke-linecap="round" stroke-linejoin="round"/>
<path d="M2.5 8.3335H17.5" stroke="#141B34" stroke-width="1.25" stroke-linecap="round" stroke-linejoin="round"/>
</svg>
