<svg width="30" height="30" viewBox="0 0 30 30" fill="none" xmlns="http://www.w3.org/2000/svg">
<path d="M0 15C0 6.71573 6.71573 0 15 0C23.2843 0 30 6.71573 30 15C30 23.2843 23.2843 30 15 30C6.71573 30 0 23.2843 0 15Z" fill="#FF914D" fill-opacity="0.2"/>
<path d="M10.5 14.5H20.5C20.6326 14.5 20.7598 14.5527 20.8536 14.6464C20.9473 14.7402 21 14.8674 21 15C21 15.1326 20.9473 15.2598 20.8536 15.3536C20.7598 15.4473 20.6326 15.5 20.5 15.5H10.5C10.3674 15.5 10.2402 15.4473 10.1464 15.3536C10.0527 15.2598 10 15.1326 10 15C10 14.8674 10.0527 14.7402 10.1464 14.6464C10.2402 14.5527 10.3674 14.5 10.5 14.5Z" fill="black"/>
<path d="M10.7069 15L14.8539 19.146C14.9478 19.2399 15.0005 19.3672 15.0005 19.5C15.0005 19.6328 14.9478 19.7601 14.8539 19.854C14.76 19.9479 14.6327 20.0007 14.4999 20.0007C14.3671 20.0007 14.2398 19.9479 14.1459 19.854L9.64592 15.354C9.59935 15.3076 9.56241 15.2524 9.5372 15.1917C9.512 15.1309 9.49902 15.0658 9.49902 15C9.49902 14.9343 9.512 14.8691 9.5372 14.8084C9.56241 14.7476 9.59935 14.6925 9.64592 14.646L14.1459 10.146C14.2398 10.0521 14.3671 9.99939 14.4999 9.99939C14.6327 9.99939 14.76 10.0521 14.8539 10.146C14.9478 10.2399 15.0005 10.3672 15.0005 10.5C15.0005 10.6328 14.9478 10.7601 14.8539 10.854L10.7069 15Z" fill="black"/>
</svg>
