<svg width="30" height="30" viewBox="0 0 30 30" fill="none" xmlns="http://www.w3.org/2000/svg">
<path d="M30 15C30 6.71573 23.2843 0 15 0C6.71573 0 0 6.71573 0 15C0 23.2843 6.71573 30 15 30C23.2843 30 30 23.2843 30 15Z" fill="#FF914D" fill-opacity="0.2"/>
<path d="M19.5 14.5H9.5C9.36739 14.5 9.24021 14.5527 9.14645 14.6464C9.05268 14.7402 9 14.8674 9 15C9 15.1326 9.05268 15.2598 9.14645 15.3536C9.24021 15.4473 9.36739 15.5 9.5 15.5H19.5C19.6326 15.5 19.7598 15.4473 19.8536 15.3536C19.9473 15.2598 20 15.1326 20 15C20 14.8674 19.9473 14.7402 19.8536 14.6464C19.7598 14.5527 19.6326 14.5 19.5 14.5Z" fill="black"/>
<path d="M19.2931 15L15.1461 19.146C15.0522 19.2399 14.9995 19.3672 14.9995 19.5C14.9995 19.6328 15.0522 19.7601 15.1461 19.854C15.24 19.9479 15.3673 20.0007 15.5001 20.0007C15.6329 20.0007 15.7602 19.9479 15.8541 19.854L20.3541 15.354C20.4006 15.3076 20.4376 15.2524 20.4628 15.1917C20.488 15.1309 20.501 15.0658 20.501 15C20.501 14.9343 20.488 14.8691 20.4628 14.8084C20.4376 14.7476 20.4006 14.6925 20.3541 14.646L15.8541 10.146C15.7602 10.0521 15.6329 9.99939 15.5001 9.99939C15.3673 9.99939 15.24 10.0521 15.1461 10.146C15.0522 10.2399 14.9995 10.3672 14.9995 10.5C14.9995 10.6328 15.0522 10.7601 15.1461 10.854L19.2931 15Z" fill="black"/>
</svg>
