<svg width="20" height="20" viewBox="0 0 20 20" fill="none" xmlns="http://www.w3.org/2000/svg">
<path d="M12.9168 9.16667C12.9168 10.7775 11.611 12.0833 10.0002 12.0833C8.38933 12.0833 7.0835 10.7775 7.0835 9.16667C7.0835 7.55583 8.38933 6.25 10.0002 6.25C11.611 6.25 12.9168 7.55583 12.9168 9.16667Z" stroke="#141B34" stroke-width="1.25"/>
<path d="M10 1.66675C14.0588 1.66675 17.5 5.02757 17.5 9.10491C17.5 13.2472 14.0027 16.154 10.7725 18.1307C10.5371 18.2636 10.2708 18.3334 10 18.3334C9.72917 18.3334 9.46292 18.2636 9.2275 18.1307C6.00325 16.1347 2.5 13.2615 2.5 9.10491C2.5 5.02757 5.9412 1.66675 10 1.66675Z" stroke="#141B34" stroke-width="1.25"/>
</svg>
